<svg width="45" height="45" viewBox="0 0 45 45" fill="none" xmlns="http://www.w3.org/2000/svg">
<path d="M7.5 33.75H37.5C38.5313 33.75 39.375 32.9063 39.375 31.875C39.375 30.8437 38.5313 30 37.5 30H7.5C6.46875 30 5.625 30.8437 5.625 31.875C5.625 32.9063 6.46875 33.75 7.5 33.75ZM7.5 24.375H37.5C38.5313 24.375 39.375 23.5313 39.375 22.5C39.375 21.4687 38.5313 20.625 37.5 20.625H7.5C6.46875 20.625 5.625 21.4687 5.625 22.5C5.625 23.5313 6.46875 24.375 7.5 24.375ZM5.625 13.125C5.625 14.1563 6.46875 15 7.5 15H37.5C38.5313 15 39.375 14.1563 39.375 13.125C39.375 12.0937 38.5313 11.25 37.5 11.25H7.5C6.46875 11.25 5.625 12.0937 5.625 13.125Z" fill="#1565A3"/>
</svg>
