<svg xmlns="http://www.w3.org/2000/svg" xmlns:xlink="http://www.w3.org/1999/xlink" width="100" zoomAndPan="magnify" viewBox="0 0 75 74.999997" height="100" preserveAspectRatio="xMidYMid meet" version="1.0"><defs><g/><clipPath id="cdf08abc2b"><path d="M 11.316406 14.507812 L 60 14.507812 L 60 63 L 11.316406 63 Z M 11.316406 14.507812 " clip-rule="nonzero"/></clipPath></defs><path fill="#4baac3" d="M 56.050781 38.027344 C 56.050781 40.597656 46.296875 42.683594 34.269531 42.683594 C 22.242188 42.683594 12.488281 40.597656 12.488281 38.027344 C 12.488281 35.453125 22.238281 33.371094 34.269531 33.371094 C 46.300781 33.371094 56.050781 35.457031 56.050781 38.027344 Z M 56.050781 38.027344 " fill-opacity="1" fill-rule="nonzero"/><path fill="#beddea" d="M 34.269531 41.136719 C 29.910156 41.136719 25.8125 40.820312 22.726562 40.246094 C 21.222656 39.96875 20.042969 39.640625 19.21875 39.277344 C 18.335938 38.890625 17.890625 38.46875 17.890625 38.027344 C 17.890625 37.585938 18.335938 37.164062 19.21875 36.777344 C 20.042969 36.414062 21.222656 36.085938 22.726562 35.808594 C 25.8125 35.234375 29.910156 34.917969 34.269531 34.917969 C 38.628906 34.917969 42.726562 35.234375 45.8125 35.808594 C 47.3125 36.085938 48.496094 36.414062 49.320312 36.777344 C 50.199219 37.164062 50.648438 37.585938 50.648438 38.027344 C 50.648438 38.46875 50.199219 38.890625 49.320312 39.277344 C 48.496094 39.640625 47.3125 39.96875 45.8125 40.246094 C 42.726562 40.820312 38.628906 41.136719 34.269531 41.136719 Z M 34.269531 35.066406 C 29.917969 35.066406 25.828125 35.378906 22.753906 35.953125 C 19.757812 36.511719 18.039062 37.265625 18.039062 38.027344 C 18.039062 38.789062 19.757812 39.542969 22.753906 40.101562 C 25.828125 40.675781 29.917969 40.988281 34.269531 40.988281 C 38.621094 40.988281 42.710938 40.675781 45.785156 40.101562 C 48.78125 39.542969 50.5 38.789062 50.5 38.027344 C 50.5 37.265625 48.78125 36.511719 45.785156 35.953125 C 42.710938 35.378906 38.621094 35.066406 34.269531 35.066406 Z M 34.269531 35.066406 " fill-opacity="1" fill-rule="nonzero"/><path fill="#beddea" d="M 34.269531 42.128906 C 28.9375 42.128906 23.921875 41.710938 20.152344 40.949219 C 18.3125 40.578125 16.871094 40.144531 15.859375 39.660156 C 14.792969 39.152344 14.25 38.601562 14.25 38.027344 C 14.25 37.453125 14.792969 36.902344 15.859375 36.390625 C 16.871094 35.910156 18.3125 35.476562 20.152344 35.105469 C 23.921875 34.34375 28.9375 33.925781 34.269531 33.925781 C 39.601562 33.925781 44.617188 34.34375 48.386719 35.105469 C 50.226562 35.476562 51.667969 35.910156 52.679688 36.390625 C 53.746094 36.902344 54.289062 37.453125 54.289062 38.027344 C 54.289062 38.601562 53.746094 39.152344 52.679688 39.660156 C 51.667969 40.144531 50.226562 40.578125 48.386719 40.949219 C 44.617188 41.710938 39.601562 42.128906 34.269531 42.128906 Z M 34.269531 34.070312 C 28.945312 34.070312 23.941406 34.492188 20.179688 35.25 C 16.503906 35.992188 14.398438 37.003906 14.398438 38.027344 C 14.398438 39.050781 16.503906 40.0625 20.179688 40.804688 C 23.941406 41.5625 28.945312 41.980469 34.269531 41.980469 C 39.59375 41.980469 44.597656 41.5625 48.359375 40.804688 C 52.035156 40.0625 54.140625 39.050781 54.140625 38.027344 C 54.140625 37.003906 52.035156 35.992188 48.359375 35.25 C 44.597656 34.492188 39.59375 34.070312 34.269531 34.070312 Z M 34.269531 34.070312 " fill-opacity="1" fill-rule="nonzero"/><path fill="#beddea" d="M 34.269531 40.132812 C 31.722656 40.132812 29.332031 39.921875 27.53125 39.535156 C 26.230469 39.257812 24.6875 38.773438 24.6875 38.027344 C 24.6875 37.28125 26.230469 36.792969 27.53125 36.515625 C 29.332031 36.132812 31.722656 35.917969 34.269531 35.917969 C 36.816406 35.917969 39.207031 36.132812 41.007812 36.515625 C 42.308594 36.792969 43.851562 37.28125 43.851562 38.027344 C 43.851562 38.773438 42.308594 39.257812 41.007812 39.535156 C 39.207031 39.921875 36.816406 40.132812 34.269531 40.132812 Z M 34.269531 36.066406 C 31.734375 36.066406 29.351562 36.277344 27.558594 36.660156 C 25.828125 37.03125 24.832031 37.53125 24.832031 38.027344 C 24.832031 38.523438 25.828125 39.023438 27.558594 39.394531 C 29.351562 39.777344 31.734375 39.988281 34.269531 39.988281 C 36.804688 39.988281 39.1875 39.777344 40.976562 39.394531 C 42.710938 39.023438 43.703125 38.523438 43.703125 38.027344 C 43.703125 37.53125 42.710938 37.03125 40.976562 36.660156 C 39.1875 36.277344 36.804688 36.066406 34.269531 36.066406 Z M 34.269531 36.066406 " fill-opacity="1" fill-rule="nonzero"/><path fill="#77beec" d="M 39.992188 31.230469 C 39.183594 28.535156 36.777344 25.800781 34.335938 23.144531 C 32.054688 25.628906 29.730469 28.175781 28.746094 30.699219 C 28.433594 31.425781 28.257812 32.226562 28.257812 33.070312 C 28.257812 36.390625 30.949219 39.082031 34.269531 39.082031 C 37.589844 39.082031 40.28125 36.390625 40.28125 33.070312 C 40.28125 32.429688 40.179688 31.8125 39.992188 31.230469 Z M 39.992188 31.230469 " fill-opacity="1" fill-rule="nonzero"/><path fill="#beddea" d="M 29.476562 34.296875 C 29.480469 34.375 29.484375 34.453125 29.492188 34.53125 C 29.503906 34.628906 29.53125 34.730469 29.558594 34.828125 C 29.601562 34.976562 29.652344 35.121094 29.710938 35.265625 C 29.835938 35.554688 30.023438 35.824219 30.226562 36.0625 C 30.28125 36.125 30.335938 36.1875 30.394531 36.246094 C 30.425781 36.277344 30.457031 36.308594 30.488281 36.335938 C 30.558594 36.398438 30.617188 36.445312 30.714844 36.453125 C 30.855469 36.460938 30.957031 36.316406 30.925781 36.1875 C 30.902344 36.078125 30.800781 36.015625 30.726562 35.945312 C 30.671875 35.894531 30.621094 35.84375 30.570312 35.789062 C 30.519531 35.738281 30.472656 35.683594 30.429688 35.628906 C 30.40625 35.601562 30.386719 35.574219 30.363281 35.546875 C 30.351562 35.53125 30.34375 35.519531 30.332031 35.503906 C 30.316406 35.484375 30.328125 35.496094 30.328125 35.503906 C 30.324219 35.492188 30.316406 35.484375 30.308594 35.472656 C 30.226562 35.351562 30.152344 35.226562 30.078125 35.097656 C 30.007812 34.96875 29.945312 34.84375 29.894531 34.714844 C 29.863281 34.640625 29.839844 34.5625 29.8125 34.488281 C 29.785156 34.414062 29.753906 34.34375 29.730469 34.265625 C 29.707031 34.207031 29.65625 34.164062 29.589844 34.171875 C 29.53125 34.179688 29.476562 34.234375 29.476562 34.296875 Z M 29.476562 34.296875 " fill-opacity="1" fill-rule="nonzero"/><path fill="#beddea" d="M 31.269531 37.285156 C 31.289062 37.300781 31.3125 37.320312 31.332031 37.332031 C 31.347656 37.34375 31.34375 37.335938 31.320312 37.316406 L 31.34375 37.34375 C 31.351562 37.355469 31.363281 37.367188 31.375 37.378906 C 31.410156 37.417969 31.457031 37.445312 31.5 37.472656 C 31.585938 37.53125 31.671875 37.578125 31.765625 37.628906 C 31.890625 37.691406 32.015625 37.75 32.148438 37.800781 C 32.191406 37.820312 32.238281 37.839844 32.285156 37.859375 C 32.308594 37.867188 32.328125 37.875 32.347656 37.882812 C 32.359375 37.890625 32.375 37.894531 32.386719 37.898438 C 32.429688 37.917969 32.464844 37.925781 32.515625 37.929688 C 32.550781 37.929688 32.601562 37.914062 32.628906 37.894531 C 32.671875 37.867188 32.703125 37.828125 32.722656 37.78125 C 32.753906 37.699219 32.738281 37.589844 32.667969 37.53125 C 32.628906 37.5 32.597656 37.480469 32.550781 37.464844 C 32.539062 37.460938 32.527344 37.457031 32.515625 37.453125 C 32.488281 37.441406 32.464844 37.433594 32.4375 37.425781 C 32.390625 37.40625 32.339844 37.390625 32.289062 37.371094 C 32.1875 37.332031 32.089844 37.296875 31.988281 37.257812 C 31.890625 37.222656 31.792969 37.183594 31.695312 37.152344 C 31.640625 37.132812 31.582031 37.105469 31.523438 37.097656 C 31.511719 37.09375 31.503906 37.09375 31.492188 37.09375 C 31.472656 37.089844 31.453125 37.089844 31.4375 37.085938 C 31.457031 37.089844 31.457031 37.089844 31.449219 37.085938 C 31.429688 37.074219 31.394531 37.066406 31.371094 37.058594 C 31.3125 37.035156 31.246094 37.074219 31.222656 37.128906 C 31.195312 37.1875 31.21875 37.246094 31.269531 37.285156 Z M 31.269531 37.285156 " fill-opacity="1" fill-rule="nonzero"/><path fill="#beddea" d="M 29.488281 32.964844 C 29.476562 32.996094 29.496094 32.945312 29.5 32.9375 C 29.492188 32.960938 29.496094 32.953125 29.511719 32.914062 C 29.511719 32.90625 29.511719 32.898438 29.515625 32.886719 C 29.523438 32.84375 29.535156 32.804688 29.542969 32.761719 C 29.546875 32.746094 29.550781 32.726562 29.550781 32.710938 L 29.554688 32.695312 C 29.542969 32.730469 29.546875 32.722656 29.5625 32.671875 C 29.570312 32.636719 29.578125 32.597656 29.582031 32.5625 C 29.597656 32.441406 29.617188 32.316406 29.636719 32.199219 L 29.628906 32.25 C 29.671875 32.015625 29.730469 31.785156 29.789062 31.554688 C 29.851562 31.320312 29.917969 31.113281 30 30.898438 L 29.976562 30.957031 C 30.152344 30.488281 30.371094 30.035156 30.625 29.601562 C 30.699219 29.476562 30.773438 29.355469 30.855469 29.234375 L 30.820312 29.289062 C 31.078125 28.890625 31.363281 28.515625 31.671875 28.15625 C 31.996094 27.777344 32.351562 27.429688 32.683594 27.0625 C 32.875 26.851562 33.0625 26.632812 33.21875 26.394531 C 33.257812 26.332031 33.28125 26.269531 33.269531 26.195312 C 33.261719 26.128906 33.222656 26.054688 33.167969 26.019531 C 33.050781 25.9375 32.878906 25.945312 32.792969 26.070312 C 32.640625 26.289062 32.476562 26.5 32.300781 26.703125 C 32.125 26.90625 31.941406 27.097656 31.761719 27.292969 C 31.414062 27.664062 31.082031 28.046875 30.785156 28.457031 C 30.488281 28.867188 30.207031 29.3125 29.96875 29.773438 C 29.734375 30.234375 29.539062 30.722656 29.402344 31.226562 C 29.367188 31.34375 29.339844 31.464844 29.3125 31.582031 C 29.28125 31.730469 29.261719 31.878906 29.242188 32.027344 C 29.226562 32.144531 29.214844 32.265625 29.207031 32.386719 C 29.203125 32.457031 29.199219 32.535156 29.203125 32.605469 C 29.203125 32.621094 29.203125 32.632812 29.207031 32.644531 C 29.210938 32.664062 29.207031 32.625 29.207031 32.625 C 29.207031 32.664062 29.207031 32.660156 29.210938 32.683594 C 29.210938 32.714844 29.214844 32.742188 29.21875 32.773438 C 29.222656 32.796875 29.226562 32.824219 29.230469 32.851562 C 29.234375 32.871094 29.234375 32.898438 29.242188 32.921875 C 29.238281 32.917969 29.261719 32.972656 29.25 32.945312 C 29.242188 32.921875 29.253906 32.957031 29.257812 32.957031 C 29.273438 33.007812 29.3125 33.050781 29.371094 33.050781 C 29.429688 33.050781 29.46875 33.015625 29.488281 32.964844 Z M 29.488281 32.964844 " fill-opacity="1" fill-rule="nonzero"/><path fill="#00bf63" d="M 38.378906 57.351562 C 38.179688 56.78125 37.679688 56.375 37.359375 55.859375 C 36.550781 54.546875 37.273438 52.566406 38.734375 52.082031 C 39.113281 51.960938 39.527344 51.917969 39.851562 51.683594 C 39.707031 50.550781 39.328125 49.449219 38.75 48.46875 C 38.597656 48.214844 38.429688 47.945312 38.445312 47.652344 C 38.46875 47.253906 38.828125 46.890625 38.71875 46.507812 C 38.617188 46.144531 38.175781 46.019531 37.800781 45.957031 C 36.574219 45.75 35.273438 45.546875 34.105469 45.980469 C 33.6875 46.136719 33.292969 46.371094 32.855469 46.449219 C 32.25 46.550781 31.570312 46.355469 31.0625 46.695312 C 30.636719 46.980469 30.5 47.539062 30.152344 47.914062 C 29.691406 48.414062 28.953125 48.503906 28.289062 48.65625 C 27.625 48.804688 26.886719 49.144531 26.742188 49.8125 C 26.640625 50.265625 26.855469 50.757812 26.691406 51.191406 C 26.460938 51.792969 25.691406 51.921875 25.097656 52.171875 C 23.667969 52.773438 23.28125 54.527344 22.953125 55.894531 C 22.894531 56.128906 22.851562 56.347656 22.820312 56.558594 C 26.148438 58.617188 30.070312 59.808594 34.269531 59.808594 C 35.460938 59.808594 36.628906 59.710938 37.769531 59.527344 C 38.300781 58.898438 38.640625 58.105469 38.378906 57.351562 Z M 38.378906 57.351562 " fill-opacity="1" fill-rule="nonzero"/><path fill="#00bf63" d="M 52.894531 43.136719 C 52.667969 43.15625 52.4375 43.1875 52.234375 43.296875 C 51.101562 43.902344 51.964844 45.980469 50.941406 46.757812 C 50.609375 47.011719 50.117188 47.074219 49.898438 47.433594 C 49.664062 47.824219 49.886719 48.335938 49.777344 48.777344 C 49.660156 49.238281 49.210938 49.523438 48.878906 49.863281 C 48.542969 50.203125 48.316406 50.800781 48.660156 51.128906 C 48.796875 51.257812 48.992188 51.3125 49.128906 51.445312 C 49.265625 51.585938 49.316406 51.785156 49.355469 51.980469 C 49.464844 52.460938 49.570312 52.941406 49.675781 53.421875 C 52.402344 50.695312 54.40625 47.25 55.382812 43.394531 C 54.441406 43.15625 53.445312 43.089844 52.894531 43.136719 Z M 52.894531 43.136719 " fill-opacity="1" fill-rule="nonzero"/><path fill="#00bf63" d="M 20.269531 49.769531 C 20.34375 49.671875 20.414062 49.550781 20.402344 49.425781 C 20.390625 49.308594 20.308594 49.210938 20.234375 49.121094 C 18.648438 47.308594 16.25 46.246094 15.023438 44.175781 C 14.578125 43.429688 13.804688 42.050781 12.839844 41.9375 C 13.480469 45.476562 14.980469 48.722656 17.113281 51.445312 C 17.226562 50.917969 17.34375 50.390625 17.457031 49.863281 C 18.160156 50.679688 19.621094 50.628906 20.269531 49.769531 Z M 20.269531 49.769531 " fill-opacity="1" fill-rule="nonzero"/><path fill="#2290ae" d="M 34.269531 42.683594 C 22.242188 42.683594 12.488281 40.597656 12.488281 38.027344 C 12.488281 39.363281 12.609375 40.667969 12.839844 41.9375 C 13.804688 42.050781 14.578125 43.429688 15.023438 44.175781 C 16.253906 46.246094 18.652344 47.308594 20.234375 49.121094 C 20.3125 49.210938 20.390625 49.308594 20.402344 49.425781 C 20.414062 49.550781 20.347656 49.671875 20.269531 49.773438 C 19.625 50.628906 18.160156 50.679688 17.457031 49.863281 C 17.34375 50.390625 17.226562 50.917969 17.113281 51.445312 C 18.695312 53.46875 20.628906 55.203125 22.820312 56.558594 C 22.851562 56.347656 22.894531 56.128906 22.953125 55.894531 C 23.28125 54.527344 23.667969 52.773438 25.097656 52.171875 C 25.691406 51.921875 26.460938 51.792969 26.691406 51.191406 C 26.855469 50.757812 26.644531 50.265625 26.742188 49.8125 C 26.886719 49.144531 27.625 48.804688 28.289062 48.65625 C 28.953125 48.503906 29.691406 48.414062 30.152344 47.914062 C 30.5 47.539062 30.640625 46.980469 31.0625 46.695312 C 31.570312 46.355469 32.253906 46.550781 32.855469 46.449219 C 33.292969 46.371094 33.6875 46.136719 34.105469 45.980469 C 35.273438 45.546875 36.574219 45.75 37.800781 45.957031 C 38.175781 46.019531 38.617188 46.144531 38.71875 46.507812 C 38.828125 46.890625 38.46875 47.253906 38.445312 47.652344 C 38.429688 47.945312 38.601562 48.214844 38.75 48.46875 C 39.328125 49.449219 39.707031 50.550781 39.851562 51.683594 C 39.527344 51.917969 39.113281 51.960938 38.738281 52.082031 C 37.273438 52.566406 36.550781 54.546875 37.359375 55.859375 C 37.679688 56.375 38.179688 56.78125 38.378906 57.351562 C 38.640625 58.105469 38.300781 58.898438 37.769531 59.527344 C 40.214844 59.132812 42.523438 58.332031 44.625 57.195312 C 45.222656 56.871094 45.800781 56.519531 46.359375 56.144531 C 47.554688 55.347656 48.664062 54.433594 49.675781 53.421875 C 49.570312 52.941406 49.464844 52.460938 49.355469 51.980469 C 49.316406 51.785156 49.265625 51.585938 49.128906 51.445312 C 48.996094 51.3125 48.796875 51.257812 48.660156 51.128906 C 48.316406 50.800781 48.542969 50.203125 48.878906 49.863281 C 49.214844 49.523438 49.660156 49.238281 49.777344 48.777344 C 49.886719 48.335938 49.664062 47.820312 49.898438 47.433594 C 50.117188 47.074219 50.609375 47.011719 50.941406 46.757812 C 51.964844 45.980469 51.105469 43.902344 52.234375 43.296875 C 52.4375 43.1875 52.667969 43.152344 52.894531 43.136719 C 53.445312 43.089844 54.441406 43.15625 55.382812 43.390625 C 55.820312 41.675781 56.050781 39.878906 56.050781 38.027344 C 56.050781 40.597656 46.300781 42.683594 34.269531 42.683594 Z M 34.269531 42.683594 " fill-opacity="1" fill-rule="nonzero"/><path fill="#00bf63" d="M 21.976562 46.558594 C 22.03125 46.671875 21.996094 46.804688 21.996094 46.929688 C 22.007812 47.332031 22.449219 47.617188 22.851562 47.578125 C 23.25 47.542969 23.589844 47.273438 23.859375 46.976562 C 23.941406 46.882812 24.023438 46.777344 24.027344 46.652344 C 24.03125 46.378906 23.652344 46.195312 23.703125 45.929688 C 23.742188 45.714844 24.007812 45.652344 24.1875 45.527344 C 24.472656 45.324219 24.53125 44.902344 24.40625 44.570312 C 24.28125 44.242188 24.011719 43.988281 23.742188 43.765625 C 23.320312 43.414062 22.863281 43.089844 22.339844 42.933594 C 21.097656 42.554688 20.089844 43.339844 20.210938 44.578125 C 20.246094 44.925781 20.539062 45.777344 20.785156 46.023438 C 21.058594 46.292969 21.847656 46.277344 21.976562 46.558594 Z M 21.976562 46.558594 " fill-opacity="1" fill-rule="nonzero"/><g clip-path="url(#cdf08abc2b)"><path fill="#00bf63" d="M 35.125 14.511719 C 34.984375 14.511719 34.839844 14.515625 34.695312 14.515625 C 34.695312 14.515625 36.664062 22.582031 43.777344 23.839844 C 50.894531 25.097656 51.835938 23.132812 51.835938 23.132812 C 51.835938 23.132812 47.65625 18.003906 42.578125 16.023438 C 51.464844 19.378906 57.785156 27.964844 57.785156 38.027344 C 57.785156 51.011719 47.257812 61.542969 34.269531 61.542969 C 23.042969 61.542969 13.65625 53.675781 11.316406 43.15625 C 13.398438 54.414062 23.265625 62.941406 35.125 62.941406 C 48.5 62.941406 59.339844 52.101562 59.339844 38.726562 C 59.339844 25.351562 48.5 14.511719 35.125 14.511719 Z M 35.125 14.511719 " fill-opacity="1" fill-rule="nonzero"/></g><path fill="#00bf63" d="M 61.53125 17.007812 C 54.257812 17.3125 56.519531 26.617188 56.519531 26.617188 C 56.519531 26.617188 56.570312 24.496094 58.535156 21.507812 C 58.535156 21.507812 57.28125 24.355469 56.804688 26.5625 C 56.464844 28.144531 56.851562 30.242188 56.851562 30.242188 C 56.84375 30.097656 56.847656 29.949219 56.855469 29.796875 C 56.941406 27.988281 57.855469 26.3125 59.3125 25.242188 C 63.675781 22.046875 61.53125 17.007812 61.53125 17.007812 Z M 61.53125 17.007812 " fill-opacity="1" fill-rule="nonzero"/><g fill="#77beec" fill-opacity="0.4"><g transform="translate(17.959522, 16.990368)"><g><path d="M 6.296875 -12.625 L 8.359375 -4.65625 L 6.3125 -3.515625 L 2.65625 -7.46875 L 4.046875 -2.265625 L 2 -1.125 L -3.625 -7.09375 L -1.8125 -8.109375 L 2.015625 -3.59375 L 0.421875 -9.34375 L 2.28125 -10.390625 L 6.296875 -5.984375 L 4.484375 -11.609375 Z M 6.296875 -12.625 "/></g></g></g><g fill="#77beec" fill-opacity="0.4"><g transform="translate(28.849799, 11.341932)"><g><path d="M 5.34375 -2.3125 L 2.421875 -1.828125 L 2.171875 -0.359375 L 0.1875 -0.03125 L 1.71875 -8.34375 L 3.921875 -8.703125 L 8.0625 -1.328125 L 6.046875 -1 Z M 4.625 -3.703125 L 3.15625 -6.421875 L 2.671875 -3.375 Z M 4.625 -3.703125 "/></g></g></g><g fill="#77beec" fill-opacity="0.4"><g transform="translate(37.667037, 10.06755)"><g><path d="M 7.203125 -7.25 L 7.046875 -5.71875 L 4.953125 -5.9375 L 4.296875 0.4375 L 2.359375 0.234375 L 3.015625 -6.140625 L 0.921875 -6.34375 L 1.078125 -7.875 Z M 7.203125 -7.25 "/></g></g></g><g fill="#77beec" fill-opacity="0.4"><g transform="translate(44.965333, 10.919028)"><g><path d="M 4.59375 -5.1875 L 4.078125 -3.671875 L 6.53125 -2.8125 L 6.03125 -1.390625 L 3.578125 -2.25 L 3 -0.609375 L 5.765625 0.359375 L 5.265625 1.828125 L 0.671875 0.234375 L 3.28125 -7.28125 L 7.875 -5.6875 L 7.359375 -4.21875 Z M 4.59375 -5.1875 "/></g></g></g><g fill="#77beec" fill-opacity="0.4"><g transform="translate(51.358409, 13.137191)"><g><path d="M 4 2.59375 L 4.25 -0.828125 L 3.859375 -1.078125 L 2.21875 1.4375 L 0.59375 0.390625 L 4.921875 -6.28125 L 7.640625 -4.515625 C 8.160156 -4.171875 8.550781 -3.785156 8.8125 -3.359375 C 9.070312 -2.929688 9.1875 -2.5 9.15625 -2.0625 C 9.132812 -1.625 8.992188 -1.210938 8.734375 -0.828125 C 8.441406 -0.378906 8.054688 -0.0625 7.578125 0.125 C 7.109375 0.3125 6.582031 0.316406 6 0.140625 L 5.8125 3.78125 Z M 4.609375 -2.234375 L 5.609375 -1.578125 C 5.910156 -1.378906 6.179688 -1.300781 6.421875 -1.34375 C 6.660156 -1.394531 6.867188 -1.554688 7.046875 -1.828125 C 7.203125 -2.085938 7.253906 -2.332031 7.203125 -2.5625 C 7.148438 -2.800781 6.972656 -3.019531 6.671875 -3.21875 L 5.671875 -3.875 Z M 4.609375 -2.234375 "/></g></g></g><g fill="#30abf3" fill-opacity="1"><g transform="translate(17.458414, 16.489259)"><g><path d="M 6.296875 -12.625 L 8.359375 -4.65625 L 6.3125 -3.515625 L 2.65625 -7.46875 L 4.046875 -2.265625 L 2 -1.125 L -3.625 -7.09375 L -1.8125 -8.109375 L 2.015625 -3.59375 L 0.421875 -9.34375 L 2.28125 -10.390625 L 6.296875 -5.984375 L 4.484375 -11.609375 Z M 6.296875 -12.625 "/></g></g></g><g fill="#30abf3" fill-opacity="1"><g transform="translate(28.34869, 10.840823)"><g><path d="M 5.34375 -2.3125 L 2.421875 -1.828125 L 2.171875 -0.359375 L 0.1875 -0.03125 L 1.71875 -8.34375 L 3.921875 -8.703125 L 8.0625 -1.328125 L 6.046875 -1 Z M 4.625 -3.703125 L 3.15625 -6.421875 L 2.671875 -3.375 Z M 4.625 -3.703125 "/></g></g></g><g fill="#30abf3" fill-opacity="1"><g transform="translate(37.165929, 9.566442)"><g><path d="M 7.203125 -7.25 L 7.046875 -5.71875 L 4.953125 -5.9375 L 4.296875 0.4375 L 2.359375 0.234375 L 3.015625 -6.140625 L 0.921875 -6.34375 L 1.078125 -7.875 Z M 7.203125 -7.25 "/></g></g></g><g fill="#30abf3" fill-opacity="1"><g transform="translate(44.464225, 10.41792)"><g><path d="M 4.59375 -5.1875 L 4.078125 -3.671875 L 6.53125 -2.8125 L 6.03125 -1.390625 L 3.578125 -2.25 L 3 -0.609375 L 5.765625 0.359375 L 5.265625 1.828125 L 0.671875 0.234375 L 3.28125 -7.28125 L 7.875 -5.6875 L 7.359375 -4.21875 Z M 4.59375 -5.1875 "/></g></g></g><g fill="#30abf3" fill-opacity="1"><g transform="translate(50.857301, 12.636083)"><g><path d="M 4 2.59375 L 4.25 -0.828125 L 3.859375 -1.078125 L 2.21875 1.4375 L 0.59375 0.390625 L 4.921875 -6.28125 L 7.640625 -4.515625 C 8.160156 -4.171875 8.550781 -3.785156 8.8125 -3.359375 C 9.070312 -2.929688 9.1875 -2.5 9.15625 -2.0625 C 9.132812 -1.625 8.992188 -1.210938 8.734375 -0.828125 C 8.441406 -0.378906 8.054688 -0.0625 7.578125 0.125 C 7.109375 0.3125 6.582031 0.316406 6 0.140625 L 5.8125 3.78125 Z M 4.609375 -2.234375 L 5.609375 -1.578125 C 5.910156 -1.378906 6.179688 -1.300781 6.421875 -1.34375 C 6.660156 -1.394531 6.867188 -1.554688 7.046875 -1.828125 C 7.203125 -2.085938 7.253906 -2.332031 7.203125 -2.5625 C 7.148438 -2.800781 6.972656 -3.019531 6.671875 -3.21875 L 5.671875 -3.875 Z M 4.609375 -2.234375 "/></g></g></g><g fill="#00bf63" fill-opacity="0.4"><g transform="translate(5.208918, 53.478343)"><g><path d="M 6.65625 2.4375 C 6.332031 2.632812 5.992188 2.738281 5.640625 2.75 C 5.285156 2.769531 4.929688 2.675781 4.578125 2.46875 C 4.222656 2.257812 3.910156 1.929688 3.640625 1.484375 L 3.125 0.640625 L 1.125 1.859375 L 0.296875 0.5 L 5.875 -2.890625 L 7.21875 -0.6875 C 7.488281 -0.25 7.640625 0.164062 7.671875 0.5625 C 7.703125 0.96875 7.625 1.328125 7.4375 1.640625 C 7.257812 1.960938 7 2.226562 6.65625 2.4375 Z M 4.65625 0.71875 C 4.8125 0.976562 4.988281 1.132812 5.1875 1.1875 C 5.394531 1.238281 5.609375 1.195312 5.828125 1.0625 C 6.046875 0.925781 6.175781 0.757812 6.21875 0.5625 C 6.269531 0.363281 6.21875 0.132812 6.0625 -0.125 L 5.609375 -0.859375 L 4.203125 -0.015625 Z M 4.65625 0.71875 "/></g></g></g><g fill="#00bf63" fill-opacity="0.4"><g transform="translate(10.059845, 60.754946)"><g><path d="M 2.828125 2.703125 L 3.546875 -0.015625 L 3.265625 -0.28125 L 1.5625 1.5 L 0.421875 0.40625 L 4.9375 -4.3125 L 6.859375 -2.46875 C 7.234375 -2.113281 7.488281 -1.742188 7.625 -1.359375 C 7.757812 -0.984375 7.78125 -0.617188 7.6875 -0.265625 C 7.601562 0.0859375 7.429688 0.398438 7.171875 0.671875 C 6.867188 0.984375 6.507812 1.175781 6.09375 1.25 C 5.6875 1.332031 5.257812 1.257812 4.8125 1.03125 L 4.125 3.9375 Z M 4.046875 -1.09375 L 4.765625 -0.40625 C 4.972656 -0.207031 5.175781 -0.109375 5.375 -0.109375 C 5.582031 -0.117188 5.773438 -0.21875 5.953125 -0.40625 C 6.128906 -0.582031 6.210938 -0.769531 6.203125 -0.96875 C 6.191406 -1.175781 6.082031 -1.378906 5.875 -1.578125 L 5.15625 -2.265625 Z M 4.046875 -1.09375 "/></g></g></g><g fill="#00bf63" fill-opacity="0.4"><g transform="translate(16.819977, 66.631929)"><g><path d="M 4.46875 -3.515625 L 3.828125 -2.359375 L 5.671875 -1.3125 L 5.0625 -0.25 L 3.21875 -1.296875 L 2.515625 -0.046875 L 4.609375 1.140625 L 3.984375 2.25 L 0.5 0.28125 L 3.703125 -5.40625 L 7.1875 -3.4375 L 6.5625 -2.328125 Z M 4.46875 -3.515625 "/></g></g></g><g fill="#00bf63" fill-opacity="0.4"><g transform="translate(23.898689, 70.314173)"><g><path d="M 4.5625 -5.578125 C 5.226562 -5.398438 5.773438 -5.109375 6.203125 -4.703125 C 6.628906 -4.304688 6.914062 -3.835938 7.0625 -3.296875 C 7.21875 -2.753906 7.210938 -2.171875 7.046875 -1.546875 C 6.890625 -0.929688 6.613281 -0.414062 6.21875 0 C 5.820312 0.414062 5.335938 0.6875 4.765625 0.8125 C 4.203125 0.945312 3.585938 0.925781 2.921875 0.75 L 0.5625 0.140625 L 2.203125 -6.1875 Z M 3.171875 -0.59375 C 3.753906 -0.445312 4.25 -0.488281 4.65625 -0.71875 C 5.0625 -0.957031 5.335938 -1.367188 5.484375 -1.953125 C 5.640625 -2.535156 5.597656 -3.03125 5.359375 -3.4375 C 5.117188 -3.84375 4.707031 -4.117188 4.125 -4.265625 L 3.40625 -4.453125 L 2.453125 -0.78125 Z M 3.171875 -0.59375 "/></g></g></g><g fill="#00bf63" fill-opacity="0.4"><g transform="translate(33.274515, 72.184748)"><g><path d="M 2.359375 -6.46875 L 2.171875 0.0625 L 0.578125 0.015625 L 0.765625 -6.515625 Z M 2.359375 -6.46875 "/></g></g></g><g fill="#00bf63" fill-opacity="0.4"><g transform="translate(38.874784, 72.272287)"><g><path d="M -0.328125 -3.265625 C -0.460938 -3.898438 -0.441406 -4.488281 -0.265625 -5.03125 C -0.0976562 -5.582031 0.203125 -6.046875 0.640625 -6.421875 C 1.078125 -6.796875 1.601562 -7.046875 2.21875 -7.171875 C 2.976562 -7.328125 3.664062 -7.257812 4.28125 -6.96875 C 4.90625 -6.675781 5.378906 -6.207031 5.703125 -5.5625 L 3.984375 -5.203125 C 3.796875 -5.441406 3.570312 -5.609375 3.3125 -5.703125 C 3.0625 -5.796875 2.78125 -5.8125 2.46875 -5.75 C 1.988281 -5.65625 1.632812 -5.410156 1.40625 -5.015625 C 1.1875 -4.617188 1.132812 -4.140625 1.25 -3.578125 C 1.351562 -3.023438 1.582031 -2.609375 1.9375 -2.328125 C 2.300781 -2.054688 2.722656 -1.96875 3.203125 -2.0625 C 3.515625 -2.125 3.769531 -2.25 3.96875 -2.4375 C 4.175781 -2.632812 4.320312 -2.875 4.40625 -3.15625 L 6.125 -3.515625 C 6.070312 -2.785156 5.816406 -2.164062 5.359375 -1.65625 C 4.898438 -1.144531 4.289062 -0.8125 3.53125 -0.65625 C 2.914062 -0.53125 2.332031 -0.554688 1.78125 -0.734375 C 1.238281 -0.910156 0.78125 -1.21875 0.40625 -1.65625 C 0.0390625 -2.101562 -0.203125 -2.640625 -0.328125 -3.265625 Z M -0.328125 -3.265625 "/></g></g></g><g fill="#00bf63" fill-opacity="0.4"><g transform="translate(48.614995, 69.780408)"><g><path d="M 1.71875 -8.203125 L 2.296875 -7.0625 L 0.765625 -6.28125 L 3.15625 -1.609375 L 1.734375 -0.890625 L -0.65625 -5.5625 L -2.203125 -4.765625 L -2.78125 -5.90625 Z M 1.71875 -8.203125 "/></g></g></g><g fill="#00bf63" fill-opacity="0.4"><g transform="translate(55.750833, 65.662959)"><g><path d="M -2.390625 -6.453125 L 1.6875 -1.359375 L 0.453125 -0.359375 L -3.625 -5.453125 Z M -2.390625 -6.453125 "/></g></g></g><g fill="#00bf63" fill-opacity="0.4"><g transform="translate(60.088935, 62.098414)"><g><path d="M 2.296875 -2.84375 C 1.921875 -2.375 1.460938 -2.019531 0.921875 -1.78125 C 0.378906 -1.550781 -0.179688 -1.476562 -0.765625 -1.5625 C -1.347656 -1.644531 -1.894531 -1.878906 -2.40625 -2.265625 C -2.90625 -2.660156 -3.265625 -3.128906 -3.484375 -3.671875 C -3.703125 -4.222656 -3.765625 -4.789062 -3.671875 -5.375 C -3.578125 -5.957031 -3.34375 -6.484375 -2.96875 -6.953125 C -2.59375 -7.441406 -2.132812 -7.800781 -1.59375 -8.03125 C -1.050781 -8.257812 -0.488281 -8.332031 0.09375 -8.25 C 0.675781 -8.164062 1.21875 -7.925781 1.71875 -7.53125 C 2.226562 -7.144531 2.59375 -6.675781 2.8125 -6.125 C 3.03125 -5.570312 3.09375 -5.007812 3 -4.4375 C 2.90625 -3.863281 2.671875 -3.332031 2.296875 -2.84375 Z M 1.15625 -3.734375 C 1.476562 -4.148438 1.597656 -4.585938 1.515625 -5.046875 C 1.441406 -5.503906 1.175781 -5.910156 0.71875 -6.265625 C 0.269531 -6.617188 -0.179688 -6.773438 -0.640625 -6.734375 C -1.109375 -6.703125 -1.503906 -6.476562 -1.828125 -6.0625 C -2.148438 -5.65625 -2.273438 -5.222656 -2.203125 -4.765625 C -2.128906 -4.316406 -1.863281 -3.910156 -1.40625 -3.546875 C -0.945312 -3.191406 -0.484375 -3.03125 -0.015625 -3.0625 C 0.441406 -3.101562 0.832031 -3.328125 1.15625 -3.734375 Z M 1.15625 -3.734375 "/></g></g></g><g fill="#00bf63" fill-opacity="0.4"><g transform="translate(66.082738, 53.626211)"><g><path d="M 2.265625 -6 L 1.703125 -4.515625 L -3 -3.453125 L 0.765625 -2.03125 L 0.203125 -0.546875 L -5.90625 -2.859375 L -5.34375 -4.34375 L -0.625 -5.390625 L -4.40625 -6.828125 L -3.84375 -8.3125 Z M 2.265625 -6 "/></g></g></g><g fill="#00bf63" fill-opacity="1"><g transform="translate(4.75852, 53.111443)"><g><path d="M 6.65625 2.4375 C 6.332031 2.632812 5.992188 2.738281 5.640625 2.75 C 5.285156 2.769531 4.929688 2.675781 4.578125 2.46875 C 4.222656 2.257812 3.910156 1.929688 3.640625 1.484375 L 3.125 0.640625 L 1.125 1.859375 L 0.296875 0.5 L 5.875 -2.890625 L 7.21875 -0.6875 C 7.488281 -0.25 7.640625 0.164062 7.671875 0.5625 C 7.703125 0.96875 7.625 1.328125 7.4375 1.640625 C 7.257812 1.960938 7 2.226562 6.65625 2.4375 Z M 4.65625 0.71875 C 4.8125 0.976562 4.988281 1.132812 5.1875 1.1875 C 5.394531 1.238281 5.609375 1.195312 5.828125 1.0625 C 6.046875 0.925781 6.175781 0.757812 6.21875 0.5625 C 6.269531 0.363281 6.21875 0.132812 6.0625 -0.125 L 5.609375 -0.859375 L 4.203125 -0.015625 Z M 4.65625 0.71875 "/></g></g></g><g fill="#00bf63" fill-opacity="1"><g transform="translate(9.609446, 60.388051)"><g><path d="M 2.828125 2.703125 L 3.546875 -0.015625 L 3.265625 -0.28125 L 1.5625 1.5 L 0.421875 0.40625 L 4.9375 -4.3125 L 6.859375 -2.46875 C 7.234375 -2.113281 7.488281 -1.742188 7.625 -1.359375 C 7.757812 -0.984375 7.78125 -0.617188 7.6875 -0.265625 C 7.601562 0.0859375 7.429688 0.398438 7.171875 0.671875 C 6.867188 0.984375 6.507812 1.175781 6.09375 1.25 C 5.6875 1.332031 5.257812 1.257812 4.8125 1.03125 L 4.125 3.9375 Z M 4.046875 -1.09375 L 4.765625 -0.40625 C 4.972656 -0.207031 5.175781 -0.109375 5.375 -0.109375 C 5.582031 -0.117188 5.773438 -0.21875 5.953125 -0.40625 C 6.128906 -0.582031 6.210938 -0.769531 6.203125 -0.96875 C 6.191406 -1.175781 6.082031 -1.378906 5.875 -1.578125 L 5.15625 -2.265625 Z M 4.046875 -1.09375 "/></g></g></g><g fill="#00bf63" fill-opacity="1"><g transform="translate(16.36958, 66.265034)"><g><path d="M 4.46875 -3.515625 L 3.828125 -2.359375 L 5.671875 -1.3125 L 5.0625 -0.25 L 3.21875 -1.296875 L 2.515625 -0.046875 L 4.609375 1.140625 L 3.984375 2.25 L 0.5 0.28125 L 3.703125 -5.40625 L 7.1875 -3.4375 L 6.5625 -2.328125 Z M 4.46875 -3.515625 "/></g></g></g><g fill="#00bf63" fill-opacity="1"><g transform="translate(23.44829, 69.94728)"><g><path d="M 4.5625 -5.578125 C 5.226562 -5.398438 5.773438 -5.109375 6.203125 -4.703125 C 6.628906 -4.304688 6.914062 -3.835938 7.0625 -3.296875 C 7.21875 -2.753906 7.210938 -2.171875 7.046875 -1.546875 C 6.890625 -0.929688 6.613281 -0.414062 6.21875 0 C 5.820312 0.414062 5.335938 0.6875 4.765625 0.8125 C 4.203125 0.945312 3.585938 0.925781 2.921875 0.75 L 0.5625 0.140625 L 2.203125 -6.1875 Z M 3.171875 -0.59375 C 3.753906 -0.445312 4.25 -0.488281 4.65625 -0.71875 C 5.0625 -0.957031 5.335938 -1.367188 5.484375 -1.953125 C 5.640625 -2.535156 5.597656 -3.03125 5.359375 -3.4375 C 5.117188 -3.84375 4.707031 -4.117188 4.125 -4.265625 L 3.40625 -4.453125 L 2.453125 -0.78125 Z M 3.171875 -0.59375 "/></g></g></g><g fill="#00bf63" fill-opacity="1"><g transform="translate(32.82412, 71.817848)"><g><path d="M 2.359375 -6.46875 L 2.171875 0.0625 L 0.578125 0.015625 L 0.765625 -6.515625 Z M 2.359375 -6.46875 "/></g></g></g><g fill="#00bf63" fill-opacity="1"><g transform="translate(38.424385, 71.90538)"><g><path d="M -0.328125 -3.265625 C -0.460938 -3.898438 -0.441406 -4.488281 -0.265625 -5.03125 C -0.0976562 -5.582031 0.203125 -6.046875 0.640625 -6.421875 C 1.078125 -6.796875 1.601562 -7.046875 2.21875 -7.171875 C 2.976562 -7.328125 3.664062 -7.257812 4.28125 -6.96875 C 4.90625 -6.675781 5.378906 -6.207031 5.703125 -5.5625 L 3.984375 -5.203125 C 3.796875 -5.441406 3.570312 -5.609375 3.3125 -5.703125 C 3.0625 -5.796875 2.78125 -5.8125 2.46875 -5.75 C 1.988281 -5.65625 1.632812 -5.410156 1.40625 -5.015625 C 1.1875 -4.617188 1.132812 -4.140625 1.25 -3.578125 C 1.351562 -3.023438 1.582031 -2.609375 1.9375 -2.328125 C 2.300781 -2.054688 2.722656 -1.96875 3.203125 -2.0625 C 3.515625 -2.125 3.769531 -2.25 3.96875 -2.4375 C 4.175781 -2.632812 4.320312 -2.875 4.40625 -3.15625 L 6.125 -3.515625 C 6.070312 -2.785156 5.816406 -2.164062 5.359375 -1.65625 C 4.898438 -1.144531 4.289062 -0.8125 3.53125 -0.65625 C 2.914062 -0.53125 2.332031 -0.554688 1.78125 -0.734375 C 1.238281 -0.910156 0.78125 -1.21875 0.40625 -1.65625 C 0.0390625 -2.101562 -0.203125 -2.640625 -0.328125 -3.265625 Z M -0.328125 -3.265625 "/></g></g></g><g fill="#00bf63" fill-opacity="1"><g transform="translate(48.164594, 69.413504)"><g><path d="M 1.71875 -8.203125 L 2.296875 -7.0625 L 0.765625 -6.28125 L 3.15625 -1.609375 L 1.734375 -0.890625 L -0.65625 -5.5625 L -2.203125 -4.765625 L -2.78125 -5.90625 Z M 1.71875 -8.203125 "/></g></g></g><g fill="#00bf63" fill-opacity="1"><g transform="translate(55.300429, 65.296059)"><g><path d="M -2.390625 -6.453125 L 1.6875 -1.359375 L 0.453125 -0.359375 L -3.625 -5.453125 Z M -2.390625 -6.453125 "/></g></g></g><g fill="#00bf63" fill-opacity="1"><g transform="translate(59.638536, 61.73151)"><g><path d="M 2.296875 -2.84375 C 1.921875 -2.375 1.460938 -2.019531 0.921875 -1.78125 C 0.378906 -1.550781 -0.179688 -1.476562 -0.765625 -1.5625 C -1.347656 -1.644531 -1.894531 -1.878906 -2.40625 -2.265625 C -2.90625 -2.660156 -3.265625 -3.128906 -3.484375 -3.671875 C -3.703125 -4.222656 -3.765625 -4.789062 -3.671875 -5.375 C -3.578125 -5.957031 -3.34375 -6.484375 -2.96875 -6.953125 C -2.59375 -7.441406 -2.132812 -7.800781 -1.59375 -8.03125 C -1.050781 -8.257812 -0.488281 -8.332031 0.09375 -8.25 C 0.675781 -8.164062 1.21875 -7.925781 1.71875 -7.53125 C 2.226562 -7.144531 2.59375 -6.675781 2.8125 -6.125 C 3.03125 -5.570312 3.09375 -5.007812 3 -4.4375 C 2.90625 -3.863281 2.671875 -3.332031 2.296875 -2.84375 Z M 1.15625 -3.734375 C 1.476562 -4.148438 1.597656 -4.585938 1.515625 -5.046875 C 1.441406 -5.503906 1.175781 -5.910156 0.71875 -6.265625 C 0.269531 -6.617188 -0.179688 -6.773438 -0.640625 -6.734375 C -1.109375 -6.703125 -1.503906 -6.476562 -1.828125 -6.0625 C -2.148438 -5.65625 -2.273438 -5.222656 -2.203125 -4.765625 C -2.128906 -4.316406 -1.863281 -3.910156 -1.40625 -3.546875 C -0.945312 -3.191406 -0.484375 -3.03125 -0.015625 -3.0625 C 0.441406 -3.101562 0.832031 -3.328125 1.15625 -3.734375 Z M 1.15625 -3.734375 "/></g></g></g><g fill="#00bf63" fill-opacity="1"><g transform="translate(65.63234, 53.259311)"><g><path d="M 2.265625 -6 L 1.703125 -4.515625 L -3 -3.453125 L 0.765625 -2.03125 L 0.203125 -0.546875 L -5.90625 -2.859375 L -5.34375 -4.34375 L -0.625 -5.390625 L -4.40625 -6.828125 L -3.84375 -8.3125 Z M 2.265625 -6 "/></g></g></g></svg>